<?xml version="1.0" encoding="utf-8"?>
<!-- Generator: Adobe Illustrator 23.0.3, SVG Export Plug-In . SVG Version: 6.00 Build 0)  -->
<svg version="1.1" id="Layer_1" xmlns="http://www.w3.org/2000/svg" xmlns:xlink="http://www.w3.org/1999/xlink" x="0px" y="0px"
	 viewBox="0 0 1024 1024" style="enable-background:new 0 0 1024 1024;" xml:space="preserve">
<style type="text/css">
	.st0{fill:#F2F2F2;}
	.st1{fill:#333333;}
</style>
<g id="Layer_1">
	<g>
		<ellipse class="st0" cx="507.5" cy="521" rx="481.5" ry="503"/>
		<g id="layer1_7_">
			<path id="text2160_7_" class="st0" d="M819.1,715H842c0,57.3-11,99.3-33,125.2c-22,26.2-49.5,39.3-82.6,39.3
				c-27,0-52.9-8.7-77.8-26c-24.9-17.3-47.2-63.5-66.8-138.8l-55.3-211.4L334.6,872H212.9l275.3-502.8
				c-14.7-65.1-32.3-113.3-52.7-144.4c-20.5-31.3-46.1-46.9-76.6-46.9c-24.4,0-45.9,8-64,23.8c-18.4,15.8-28.3,40.2-30.7,73.3h-23.2
				c1.3-53.3,13.9-96.2,38-128.4s54-48.2,90.2-48.2c23.1,0,45.1,8,66.1,24.2c20.7,16.2,38.8,43.8,54,82.9
				c15.2,39.1,38.8,120,71.1,242.9l45.6,172.9c18.4,71.6,37.8,119.6,58.2,143.8c20.5,24.2,44.8,36.2,73.2,36.2
				C785.3,801.2,812.6,772.6,819.1,715L819.1,715z"/>
		</g>
	</g>
	<g>
		<ellipse class="st1" cx="507.5" cy="521" rx="481.5" ry="503"/>
		<g id="layer1_6_">
			<path id="text2160_6_" class="st0" d="M819.1,715H842c0,57.3-11,99.3-33,125.2c-22,26.2-49.5,39.3-82.6,39.3
				c-27,0-52.9-8.7-77.8-26c-24.9-17.3-47.2-63.5-66.8-138.8l-55.3-211.4L334.6,872H212.9l275.3-502.8
				c-14.7-65.1-32.3-113.3-52.7-144.4c-20.5-31.3-46.1-46.9-76.6-46.9c-24.4,0-45.9,8-64,23.8c-18.4,15.8-28.3,40.2-30.7,73.3h-23.2
				c1.3-53.3,13.9-96.2,38-128.4s54-48.2,90.2-48.2c23.1,0,45.1,8,66.1,24.2c20.7,16.2,38.8,43.8,54,82.9
				c15.2,39.1,38.8,120,71.1,242.9l45.6,172.9c18.4,71.6,37.8,119.6,58.2,143.8c20.5,24.2,44.8,36.2,73.2,36.2
				C785.3,801.2,812.6,772.6,819.1,715L819.1,715z"/>
		</g>
	</g>
</g>
</svg>
