<svg id="a0a29622-b44a-4d03-9953-7db75423578d" data-name="Layer 1" xmlns="http://www.w3.org/2000/svg" viewBox="0 0 240 240"><defs><style>.a5d18620-5d1f-4044-99e0-9e71c86541c6,.f28c77e2-65e0-4521-9a62-23dccd9e4cfc{fill:#181616;}.f28c77e2-65e0-4521-9a62-23dccd9e4cfc{fill-rule:evenodd;}</style></defs><title>github</title><path class="f28c77e2-65e0-4521-9a62-23dccd9e4cfc" d="M120,0C53.735,0,0,55.083,0,123.038c0,54.361,34.383,100.48,82.064,116.75,6,1.138,8.2-2.67,8.2-5.919,0-2.933-.111-12.627-.163-22.908-33.384,7.444-40.429-14.517-40.429-14.517-5.458-14.22-13.324-18-13.324-18-10.888-7.636.821-7.479.821-7.479,12.049.868,18.4,12.681,18.4,12.681,10.7,18.808,28.072,13.371,34.921,10.227,1.077-7.951,4.186-13.381,7.618-16.453-26.653-3.11-54.674-13.662-54.674-60.806A48.289,48.289,0,0,1,55.794,83.586c-1.246-3.1-5.354-15.613,1.162-32.562,0,0,10.078-3.3,33.008,12.614a111.069,111.069,0,0,1,60.1,0c22.9-15.919,32.966-12.614,32.966-12.614,6.532,16.949,2.424,29.462,1.178,32.562a48.193,48.193,0,0,1,12.35,33.025c0,47.258-28.072,57.662-54.794,60.708,4.3,3.819,8.139,11.306,8.139,22.785,0,16.462-.138,29.712-.138,33.765,0,3.275,2.16,7.111,8.241,5.9,47.655-16.288,82-62.391,82-116.734C240,55.083,186.273,0,120,0Z"/><path class="a5d18620-5d1f-4044-99e0-9e71c86541c6" d="M45.451,176.655a1.491,1.491,0,0,1-2.057.376c-.872-.4-1.359-1.236-1.077-1.849.258-.628,1.2-.8,2.066-.384.872.4,1.368,1.244,1.068,1.857Zm-1.477-1.122"/><path class="a5d18620-5d1f-4044-99e0-9e71c86541c6" d="M50.312,182.214c-.573.543-1.693.291-2.451-.569a1.914,1.914,0,0,1-.352-2.557c.59-.543,1.675-.288,2.461.569s.939,2.006.342,2.557Zm-1.145-1.26"/><path class="a5d18620-5d1f-4044-99e0-9e71c86541c6" d="M55.043,189.3c-.736.526-1.939.034-2.682-1.06s-.736-2.408.017-2.933,1.929-.052,2.682,1.033c.734,1.112.734,2.425-.017,2.96Zm0,0"/><path class="a5d18620-5d1f-4044-99e0-9e71c86541c6" d="M61.524,196.146c-.657.744-2.059.543-3.083-.472-1.05-.991-1.341-2.4-.683-3.143s2.076-.536,3.109.471c1.042.991,1.358,2.408.657,3.144Zm0,0"/><path class="a5d18620-5d1f-4044-99e0-9e71c86541c6" d="M70.467,200.121c-.291.963-1.64,1.4-3,.991s-2.245-1.55-1.971-2.523,1.638-1.426,3.006-.989c1.356.42,2.245,1.54,1.964,2.521Zm0,0"/><path class="a5d18620-5d1f-4044-99e0-9e71c86541c6" d="M80.288,200.858c.033,1.014-1.12,1.856-2.546,1.874-1.434.034-2.6-.788-2.612-1.787,0-1.025,1.127-1.856,2.561-1.882s2.6.788,2.6,1.8Zm0,0"/><path class="a5d18620-5d1f-4044-99e0-9e71c86541c6" d="M89.426,199.264c.171.989-.821,2-2.237,2.276-1.394.263-2.682-.35-2.861-1.331-.172-1.015.837-2.032,2.228-2.294,1.419-.253,2.69.342,2.87,1.349Zm0,0"/></svg>