<svg id="Layer_1" data-name="Layer 1" xmlns="http://www.w3.org/2000/svg" viewBox="0 0 285.384 313.241"><defs><style>.cls-1{fill:none;stroke:#aca7a4;stroke-miterlimit:10;stroke-width:0.8px;}.cls-2{fill:#900;}</style></defs><title>iulogo</title><path class="cls-1" d="M.749.341H.333V.755m284.584,0V.341H284.5m0,312.441h.416v-.412m-284.584,0v.412H.749" transform="translate(0.067 0.059)"/><polygon class="cls-2" points="161.145 106.753 161.145 116.954 168.195 116.954 168.195 173.751 153.275 173.751 153.275 98.946 161.203 98.946 161.203 88.748 123.989 88.748 123.989 98.946 131.922 98.946 131.922 173.751 116.833 173.751 116.833 116.954 123.884 116.954 123.884 106.753 88.876 106.753 88.876 116.954 96.785 116.954 96.785 182.725 109.653 195.857 131.922 195.857 131.922 211.018 124.02 211.018 124.02 224.15 161.179 224.15 161.179 211.018 153.275 211.018 153.275 195.857 175.375 195.857 188.244 182.725 188.244 116.954 196.17 116.954 196.17 106.753 161.145 106.753"/></svg>