<svg id="b5137dcf-d105-4411-b788-c0a0fa4bf6a2" data-name="Layer 1" xmlns="http://www.w3.org/2000/svg" viewBox="0 0 34.5 34.815"><defs><style>.ede87557-da63-4dfe-b781-4aeb44a0a60f{stroke:#000;stroke-linejoin:round;fill-rule:evenodd;}.eab7afbc-609f-4e9a-9b7e-77ffee3318f1,.ede87557-da63-4dfe-b781-4aeb44a0a60f{stroke-width:1.5px;}.eab7afbc-609f-4e9a-9b7e-77ffee3318f1{fill:none;stroke:#fff;stroke-linecap:round;}</style></defs><title>bbishop</title><path class="ede87557-da63-4dfe-b781-4aeb44a0a60f" d="M9,36c3.39-.97,10.11.43,13.5-2,3.39,2.43,10.11,1.03,13.5,2a7.917,7.917,0,0,1,3,2c-.68.97-1.65.99-3,.5-3.39-.97-10.11.46-13.5-1-3.39,1.46-10.11.03-13.5,1-1.354.49-2.323.47-3-.5A4.21,4.21,0,0,1,9,36Z" transform="translate(-5.25 -4.75)"/><path class="ede87557-da63-4dfe-b781-4aeb44a0a60f" d="M15,32c2.5,2.5,12.5,2.5,15,0,.5-1.5,0-2,0-2,0-2.5-2.5-4-2.5-4,5.5-1.5,6-11.5-5-15.5-11,4-10.5,14-5,15.5,0,0-2.5,1.5-2.5,4C15,30,14.5,30.5,15,32Z" transform="translate(-5.25 -4.75)"/><path class="ede87557-da63-4dfe-b781-4aeb44a0a60f" d="M25,8a2.5,2.5,0,1,1-2.5-2.5A2.5,2.5,0,0,1,25,8Z" transform="translate(-5.25 -4.75)"/><path class="eab7afbc-609f-4e9a-9b7e-77ffee3318f1" d="M17.5,26h10M15,30H30M22.5,15.5v5M20,18h5" transform="translate(-5.25 -4.75)"/></svg>