<svg id="bfda4a6e-460e-4e29-b279-2101ab083bf6" data-name="Layer 1" xmlns="http://www.w3.org/2000/svg" viewBox="0 0 34.785 35.125"><defs><style>.b0130794-78e1-4edd-b0d3-7702e8a3d34f,.eb0499ad-f8d5-4a0f-bda9-0d82c333c761{fill:none;}.a9752734-985b-4742-a9bd-e36135e386ba,.b0130794-78e1-4edd-b0d3-7702e8a3d34f,.b815f2d2-ed55-440e-b7df-aa69f23416cf{stroke:#000;}.a9752734-985b-4742-a9bd-e36135e386ba,.b0130794-78e1-4edd-b0d3-7702e8a3d34f,.eb0499ad-f8d5-4a0f-bda9-0d82c333c761{stroke-linecap:round;}.a9752734-985b-4742-a9bd-e36135e386ba,.b0130794-78e1-4edd-b0d3-7702e8a3d34f,.b815f2d2-ed55-440e-b7df-aa69f23416cf,.eb0499ad-f8d5-4a0f-bda9-0d82c333c761{stroke-width:1.5px;}.a9752734-985b-4742-a9bd-e36135e386ba,.b815f2d2-ed55-440e-b7df-aa69f23416cf{fill-rule:evenodd;}.a9752734-985b-4742-a9bd-e36135e386ba,.eb0499ad-f8d5-4a0f-bda9-0d82c333c761{stroke-linejoin:round;}.eb0499ad-f8d5-4a0f-bda9-0d82c333c761{stroke:#fff;}</style></defs><title>bking</title><path id="b4845ade-d234-4044-9892-4ac8c689cfaa" data-name="path6570" class="b0130794-78e1-4edd-b0d3-7702e8a3d34f" d="M22.5,11.63V6" transform="translate(-5.077 -5.25)"/><path class="b815f2d2-ed55-440e-b7df-aa69f23416cf" d="M22.5,25s4.5-7.5,3-10.5c0,0-1-2.5-3-2.5s-3,2.5-3,2.5c-1.5,3,3,10.5,3,10.5" transform="translate(-5.077 -5.25)"/><path class="a9752734-985b-4742-a9bd-e36135e386ba" d="M11.5,37c5.5,3.5,15.5,3.5,21,0V30s9-4.5,6-10.5c-4-6.5-13.5-3.5-16,4v0C19,16,9.5,13,6.5,19.5c-3,6,5,10,5,10Z" transform="translate(-5.077 -5.25)"/><path class="b0130794-78e1-4edd-b0d3-7702e8a3d34f" d="M20,8h5" transform="translate(-5.077 -5.25)"/><path class="eb0499ad-f8d5-4a0f-bda9-0d82c333c761" d="M32,29.5s8.5-4,6.03-9.65C34.15,14,25,18,22.5,24.5l.01,2.1-.01-2.1C20,18,9.906,14,7,19.85c-2.5,5.65,4.853,9,4.853,9" transform="translate(-5.077 -5.25)"/><path class="eb0499ad-f8d5-4a0f-bda9-0d82c333c761" d="M11.5,30c5.5-3,15.5-3,21,0m-21,3.5c5.5-3,15.5-3,21,0M11.5,37c5.5-3,15.5-3,21,0" transform="translate(-5.077 -5.25)"/></svg>