<svg id="a879bd8d-b905-4def-8d43-61669712bb46" data-name="Layer 1" xmlns="http://www.w3.org/2000/svg" viewBox="0 0 33.529 33.5"><defs><style>.a88f1fc8-266a-4743-bcf4-85c65d3f658c{stroke:#000;}.a88f1fc8-266a-4743-bcf4-85c65d3f658c,.e30a6010-e949-4d1b-b9b3-e4ea56d40021{stroke-linecap:round;stroke-linejoin:round;stroke-width:1.5px;}.a88f1fc8-266a-4743-bcf4-85c65d3f658c,.bcc9ff8b-326f-4cf3-8247-12481af0e3c0,.e30a6010-e949-4d1b-b9b3-e4ea56d40021{fill-rule:evenodd;}.bcc9ff8b-326f-4cf3-8247-12481af0e3c0,.e30a6010-e949-4d1b-b9b3-e4ea56d40021{fill:#fff;}.e30a6010-e949-4d1b-b9b3-e4ea56d40021{stroke:#fff;}</style></defs><title>bknight</title><path class="a88f1fc8-266a-4743-bcf4-85c65d3f658c" d="M22,10c10.5,1,16.5,8,16,29H15c0-9,10-6.5,8-21" transform="translate(-5.25 -6.25)"/><path class="a88f1fc8-266a-4743-bcf4-85c65d3f658c" d="M24,18c.38,2.91-5.55,7.37-8,9-3,2-2.82,4.34-5,4-1.042-.94,1.41-3.04,0-3-1,0,.19,1.23-1,2-1,0-4,1-4-4,0-2,6-12,6-12s1.89-1.9,2-3.5c-.73-.994-.5-2-.5-3,1-1,3,2.5,3,2.5h2A6.707,6.707,0,0,1,21,7c1,0,1,3,1,3" transform="translate(-5.25 -6.25)"/><path class="e30a6010-e949-4d1b-b9b3-e4ea56d40021" d="M9.5,25.5A.5.5,0,1,1,9,25,.5.5,0,0,1,9.5,25.5Z" transform="translate(-5.25 -6.25)"/><path class="e30a6010-e949-4d1b-b9b3-e4ea56d40021" d="M14.933,15.75c-.414.717-.944,1.187-1.183,1.049s-.1-.832.317-1.549.944-1.187,1.183-1.049S15.347,15.033,14.933,15.75Z" transform="translate(-5.25 -6.25)"/><path class="bcc9ff8b-326f-4cf3-8247-12481af0e3c0" d="M24.55,10.4l-.45,1.45.5.15c3.15,1,5.65,2.49,7.9,6.75S35.75,29.06,35.25,39l-.05.5h2.25l.05-.5c.5-10.06-.88-16.85-3.25-21.34s-5.79-6.64-9.19-7.16Z" transform="translate(-5.25 -6.25)"/></svg>