<svg id="e510ab97-4b7a-4021-a4f7-e9c78542b3ce" data-name="Layer 1" xmlns="http://www.w3.org/2000/svg" viewBox="0 0 38.5 35.943"><defs><style>.bf586b45-ad9f-4316-8be1-bf2edc4998b0,.ef3f5212-347c-4d80-84e8-29f3024f128d{stroke:#000;}.bf586b45-ad9f-4316-8be1-bf2edc4998b0,.e95865d0-8719-44a7-bd88-3a1338fb8d4c,.ef3f5212-347c-4d80-84e8-29f3024f128d{stroke-linejoin:round;stroke-width:1.5px;}.bf586b45-ad9f-4316-8be1-bf2edc4998b0{fill-rule:evenodd;}.e95865d0-8719-44a7-bd88-3a1338fb8d4c,.ef3f5212-347c-4d80-84e8-29f3024f128d{fill:none;}.e95865d0-8719-44a7-bd88-3a1338fb8d4c{stroke:#fff;stroke-linecap:round;}</style></defs><title>bqueen</title><circle cx="2.75" cy="6.75" r="2.75"/><circle cx="10.75" cy="3.75" r="2.75"/><circle cx="19.25" cy="2.75" r="2.75"/><circle cx="27.75" cy="3.75" r="2.75"/><circle cx="35.75" cy="6.75" r="2.75"/><path class="bf586b45-ad9f-4316-8be1-bf2edc4998b0" d="M9,26c8.5-1.5,21-1.5,27,0l2.5-12.5L31,25l-.3-14.1L25.5,24.5,22.5,10l-3,14.5L14.3,10.9,14,25,6.5,13.5Z" transform="translate(-3.25 -5.25)"/><path class="bf586b45-ad9f-4316-8be1-bf2edc4998b0" d="M9,26c0,2,1.5,2,2.5,4,1,1.5,1,1,.5,3.5A3.229,3.229,0,0,0,10.5,36c-1.5,1.5.5,2.5.5,2.5a88.542,88.542,0,0,0,23,0s1.5-1,0-2.5a2.223,2.223,0,0,0-1-2.5c-.5-2.5-.5-2,.5-3.5,1-2,2.5-2,2.5-4A81.563,81.563,0,0,0,9,26Z" transform="translate(-3.25 -5.25)"/><path class="ef3f5212-347c-4d80-84e8-29f3024f128d" d="M11,38.5a35,35,0,0,0,23,0" transform="translate(-3.25 -5.25)"/><path class="e95865d0-8719-44a7-bd88-3a1338fb8d4c" d="M11,29a35,35,0,0,1,23,0" transform="translate(-3.25 -5.25)"/><path class="e95865d0-8719-44a7-bd88-3a1338fb8d4c" d="M12.5,31.5h20" transform="translate(-3.25 -5.25)"/><path class="e95865d0-8719-44a7-bd88-3a1338fb8d4c" d="M11.5,34.5a35,35,0,0,0,22,0" transform="translate(-3.25 -5.25)"/><path class="e95865d0-8719-44a7-bd88-3a1338fb8d4c" d="M10.5,37.5a35,35,0,0,0,24,0" transform="translate(-3.25 -5.25)"/></svg>