<svg id="e9e61b01-3c50-45cc-a5ec-c4feaefb0e20" data-name="Layer 1" xmlns="http://www.w3.org/2000/svg" viewBox="0 0 28.5 31.5"><defs><style>.ae3682c5-0caf-4348-9ee8-2d393fdfdf3f,.b441e238-2452-4360-b328-a07756d61b81{stroke:#000;stroke-width:1.5px;fill-rule:evenodd;}.ae3682c5-0caf-4348-9ee8-2d393fdfdf3f{stroke-linejoin:round;}.edc1a1f0-96d3-40a9-8251-1776f6b8237d{fill:none;stroke:#fff;stroke-linecap:round;}</style></defs><title>brook</title><path class="ae3682c5-0caf-4348-9ee8-2d393fdfdf3f" d="M9,39H36V36H9Z" transform="translate(-8.25 -8.25)"/><path class="ae3682c5-0caf-4348-9ee8-2d393fdfdf3f" d="M12.5,32,14,29.5H31L32.5,32Z" transform="translate(-8.25 -8.25)"/><path class="ae3682c5-0caf-4348-9ee8-2d393fdfdf3f" d="M12,36V32H33v4Z" transform="translate(-8.25 -8.25)"/><path class="b441e238-2452-4360-b328-a07756d61b81" d="M14,29.5v-13H31v13Z" transform="translate(-8.25 -8.25)"/><path class="ae3682c5-0caf-4348-9ee8-2d393fdfdf3f" d="M14,16.5,11,14H34l-3,2.5Z" transform="translate(-8.25 -8.25)"/><path class="ae3682c5-0caf-4348-9ee8-2d393fdfdf3f" d="M11,14V9h4v2h5V9h5v2h5V9h4v5Z" transform="translate(-8.25 -8.25)"/><path class="edc1a1f0-96d3-40a9-8251-1776f6b8237d" d="M12,35.5H33" transform="translate(-8.25 -8.25)"/><path class="edc1a1f0-96d3-40a9-8251-1776f6b8237d" d="M13,31.5H32" transform="translate(-8.25 -8.25)"/><path class="edc1a1f0-96d3-40a9-8251-1776f6b8237d" d="M14,29.5H31" transform="translate(-8.25 -8.25)"/><path class="edc1a1f0-96d3-40a9-8251-1776f6b8237d" d="M14,16.5H31" transform="translate(-8.25 -8.25)"/><path class="edc1a1f0-96d3-40a9-8251-1776f6b8237d" d="M11,14H34" transform="translate(-8.25 -8.25)"/></svg>