<svg id="Layer_1" data-name="Layer 1" xmlns="http://www.w3.org/2000/svg" viewBox="0 0 34.785 35.125"><defs><style>.cls-1,.cls-4{fill:none;}.cls-1,.cls-2,.cls-3,.cls-4{stroke:#000;stroke-width:1.5px;}.cls-1,.cls-3,.cls-4{stroke-linecap:round;}.cls-2,.cls-3{fill:#fff;fill-rule:evenodd;}.cls-3,.cls-4{stroke-linejoin:round;}</style></defs><title>wking</title><path class="cls-1" d="M22.5,11.63V6" transform="translate(-5.077 -5.25)"/><path class="cls-1" d="M20,8h5" transform="translate(-5.077 -5.25)"/><path class="cls-2" d="M22.5,25s4.5-7.5,3-10.5c0,0-1-2.5-3-2.5s-3,2.5-3,2.5c-1.5,3,3,10.5,3,10.5" transform="translate(-5.077 -5.25)"/><path class="cls-3" d="M11.5,37c5.5,3.5,15.5,3.5,21,0V30s9-4.5,6-10.5c-4-6.5-13.5-3.5-16,4v0C19,16,9.5,13,6.5,19.5c-3,6,5,10,5,10Z" transform="translate(-5.077 -5.25)"/><path class="cls-4" d="M11.5,30c5.5-3,15.5-3,21,0" transform="translate(-5.077 -5.25)"/><path class="cls-4" d="M11.5,33.5c5.5-3,15.5-3,21,0" transform="translate(-5.077 -5.25)"/><path class="cls-4" d="M11.5,37c5.5-3,15.5-3,21,0" transform="translate(-5.077 -5.25)"/></svg>