<svg id="Layer_1" data-name="Layer 1" xmlns="http://www.w3.org/2000/svg" viewBox="0 0 33.529 33.5"><defs><style>.cls-1{fill:#fff;}.cls-1,.cls-2{stroke:#000;stroke-linecap:round;stroke-linejoin:round;stroke-width:1.5px;fill-rule:evenodd;}</style></defs><title>wknight</title><path class="cls-1" d="M22,10c10.5,1,16.5,8,16,29H15c0-9,10-6.5,8-21" transform="translate(-5.25 -6.25)"/><path class="cls-1" d="M24,18c.38,2.91-5.55,7.37-8,9-3,2-2.82,4.34-5,4-1.042-.94,1.41-3.04,0-3-1,0,.19,1.23-1,2-1,0-4,1-4-4,0-2,6-12,6-12s1.89-1.9,2-3.5c-.73-.994-.5-2-.5-3,1-1,3,2.5,3,2.5h2A6.707,6.707,0,0,1,21,7c1,0,1,3,1,3" transform="translate(-5.25 -6.25)"/><path class="cls-2" d="M9.5,25.5A.5.5,0,1,1,9,25,.5.5,0,0,1,9.5,25.5Z" transform="translate(-5.25 -6.25)"/><path class="cls-2" d="M14.933,15.75c-.414.717-.944,1.187-1.183,1.049s-.1-.832.317-1.549.944-1.187,1.183-1.049S15.347,15.033,14.933,15.75Z" transform="translate(-5.25 -6.25)"/></svg>