<svg id="Layer_1" data-name="Layer 1" xmlns="http://www.w3.org/2000/svg" viewBox="0 0 38.5 35.25"><defs><style>.cls-1,.cls-2{fill:#fff;fill-rule:evenodd;}.cls-1,.cls-2,.cls-3{stroke:#000;stroke-linejoin:round;stroke-width:1.5px;}.cls-1,.cls-3{stroke-linecap:round;}.cls-3{fill:none;}</style></defs><title>wqueen</title><path class="cls-1" d="M8,12a2,2,0,1,1-2-2A2,2,0,0,1,8,12Z" transform="translate(-3.25 -4.75)"/><path class="cls-1" d="M24.5,7.5a2,2,0,1,1-2-2A2,2,0,0,1,24.5,7.5Z" transform="translate(-3.25 -4.75)"/><path class="cls-1" d="M41,12a2,2,0,1,1-2-2A2,2,0,0,1,41,12Z" transform="translate(-3.25 -4.75)"/><path class="cls-1" d="M16,8.5a2,2,0,1,1-2-2A2,2,0,0,1,16,8.5Z" transform="translate(-3.25 -4.75)"/><path class="cls-1" d="M33,9a2,2,0,1,1-2-2A2,2,0,0,1,33,9Z" transform="translate(-3.25 -4.75)"/><path class="cls-2" d="M9,26c8.5-1.5,21-1.5,27,0l2-12L31,25V11L25.5,24.5l-3-15-3,15L14,10.5V25L7,14Z" transform="translate(-3.25 -4.75)"/><path class="cls-2" d="M9,26c0,2,1.5,2,2.5,4,1,1.5,1,1,.5,3.5A3.229,3.229,0,0,0,10.5,36c-1.5,1.5.5,2.5.5,2.5a88.542,88.542,0,0,0,23,0s1.5-1,0-2.5a2.223,2.223,0,0,0-1-2.5c-.5-2.5-.5-2,.5-3.5,1-2,2.5-2,2.5-4A81.563,81.563,0,0,0,9,26Z" transform="translate(-3.25 -4.75)"/><path class="cls-3" d="M11.5,30c3.5-1,18.5-1,22,0" transform="translate(-3.25 -4.75)"/><path class="cls-3" d="M12,33.5a73.875,73.875,0,0,1,21,0" transform="translate(-3.25 -4.75)"/></svg>